<svg width="158" height="158" viewBox="0 0 158 158" fill="none" xmlns="http://www.w3.org/2000/svg">
<g opacity="0.1">
<path d="M127.138 131.299L86.4325 77.672L108.86 54.1495L132.7 125.25C132.82 125.698 132.657 125.982 132.493 126.265L129.269 131.208C128.719 131.835 127.542 131.911 127.138 131.299Z" fill="#F4F4F4"/>
<path d="M129.209 130.984C128.719 131.835 127.765 131.851 127.078 131.075L86.3726 77.4482L108.801 53.9257L111.466 62.0878C97.7757 71.7539 101.692 97.0937 129.209 130.984Z" fill="#EDEDED"/>
<path d="M10.8683 36.0244L71.4083 65.3844L90.136 38.775L15.8636 29.6479C15.5802 29.484 15.1934 29.8275 14.7466 29.9472L10.3885 34.2337C10.0617 34.8011 10.3016 35.6964 10.8683 36.0244Z" fill="#F4F4F4"/>
<path d="M10.8353 34.114C10.0617 34.8011 10.3016 35.6964 10.8684 36.0244L71.4084 65.3843L90.1361 38.775L81.7013 37.6764C75.0677 53.1284 49.2793 54.2807 10.8353 34.114Z" fill="#EDEDED"/>
<path d="M46.1853 118.684C74.2517 90.2921 114.025 51.0863 121.755 40.6185C129.485 30.1507 130.474 15.9712 126.147 12.3326C121.88 8.91771 105.339 15.9888 99.5269 23.7837C93.9379 31.5187 43.987 105.119 38.8448 112.734C33.4193 120.185 37.6324 126.973 46.1853 118.684Z" fill="white"/>
<path d="M82.0212 59.4219C58.7885 91.5566 42.0052 113.807 39.8 122.554C36.0459 122.84 35.0098 118.08 38.6213 112.794C43.8235 105.403 93.7145 31.5786 99.3034 23.8436C104.892 16.1085 121.657 8.97763 125.924 12.3925C126.207 12.5564 126.49 12.7204 126.61 13.1681C116.215 15.4738 97.5842 37.9787 82.0212 59.4219Z" fill="#EDEDED"/>
<path d="M63.8259 136.268L45.1119 118.252L55.2554 107.857L65.9067 133.312C65.9667 133.536 65.9667 133.536 65.8033 133.819L64.556 136.313C64.616 136.536 64.1692 136.656 63.8259 136.268Z" fill="#F4F4F4"/>
<path d="M18.1265 98.8535L39.5316 113.51L47.5716 101.519L20.5507 96.2847C20.3273 96.3445 20.3273 96.3445 20.104 96.4044L17.9466 98.182C18.0066 98.4058 17.8432 98.6895 18.1265 98.8535Z" fill="#F4F4F4"/>
<path d="M109.753 18.165C112.314 16.999 114.771 16.3406 116.901 16.2496L114.21 19.6096C112.854 19.0135 111.497 18.4175 109.753 18.165Z" fill="#8CD3F6"/>
<path d="M115.791 20.1457L118.868 16.4422C120.105 16.5906 121.179 17.0227 122.089 17.7384L118.461 22.0692C117.551 21.3534 116.701 20.8615 115.791 20.1457Z" fill="#8CD3F6"/>
<path d="M124.494 30.2887C124.494 30.2887 123.851 28.7817 122.581 26.723L125.108 23.6467C125.365 25.4972 125.234 27.6912 124.494 30.2887Z" fill="#8CD3F6"/>
<path d="M121.491 25.3356C120.804 24.56 120.341 23.7245 119.431 23.0088L123.059 18.678C123.746 19.4536 124.209 20.2891 124.569 21.6321L121.491 25.3356Z" fill="#8CD3F6"/>
<path d="M103.669 58.8993L101.222 56.916L103.87 54.2873L106.316 56.2706C105.543 56.9577 104.606 57.9285 103.669 58.8993Z" fill="#8CD3F6"/>
<path d="M100.308 62.4388L97.9207 60.6793L100.508 57.8269L102.955 59.8102C102.182 60.4973 101.245 61.4681 100.308 62.4388Z" fill="#8CD3F6"/>
<path d="M72.7915 90.2036L71.3148 89.1599L74.1258 86.2475L75.6625 87.5151C74.6655 88.262 73.7285 89.2328 72.7915 90.2036Z" fill="#8CD3F6"/>
<path d="M76.3759 86.6041L74.8392 85.3366L77.4268 82.4841L78.9635 83.7516C78.0865 84.9463 77.1495 85.917 76.3759 86.6041Z" fill="#8CD3F6"/>
<path d="M86.5796 76.4331L84.6995 74.7777L87.2871 71.9252L89.1672 73.5806C88.4536 74.4915 87.5166 75.4623 86.5796 76.4331Z" fill="#8CD3F6"/>
<path d="M79.7971 83.2884L78.2603 82.0209L80.8479 79.1684L82.668 80.5999C81.4477 81.4067 80.7341 82.3177 79.7971 83.2884Z" fill="#8CD3F6"/>
<path d="M90.1641 72.8337L88.0606 71.2382L90.6482 68.3857L92.8117 70.2051C91.8147 70.952 90.8777 71.9228 90.1641 72.8337Z" fill="#8CD3F6"/>
<path d="M93.5253 69.294L91.3619 67.4747L93.9495 64.6222L96.1129 66.4416C95.2359 67.6362 94.5223 68.5471 93.5253 69.294Z" fill="#8CD3F6"/>
<path d="M96.9465 65.9784L94.783 64.159L97.3706 61.3066L99.5341 63.1259C98.5971 64.0967 97.8835 65.0076 96.9465 65.9784Z" fill="#8CD3F6"/>
<path d="M83.1583 79.7489L81.3382 78.3173L83.9258 75.4648L85.7459 76.8964C85.0923 78.0311 84.0953 78.7781 83.1583 79.7489Z" fill="#8CD3F6"/>
<path d="M69.3702 93.5192L68.1168 92.4156L70.7644 89.787L72.0178 90.8906C71.0808 91.8613 70.1438 92.8321 69.3702 93.5192Z" fill="#8CD3F6"/>
<path d="M113.752 48.2805L111.305 46.2972L113.893 43.4447L116.34 45.428C115.626 46.339 114.689 47.3097 113.752 48.2805Z" fill="#8CD3F6"/>
<path d="M119.091 42.2919C118.541 42.9192 117.827 43.8301 116.89 44.8009L114.443 42.8176L116.704 40.5325C116.868 40.2488 118.121 41.3523 119.091 42.2919Z" fill="#8CD3F6"/>
<path d="M110.391 51.8201L107.944 49.8368L110.532 46.9843L112.979 48.9677C112.265 49.8786 111.328 50.8494 110.391 51.8201Z" fill="#8CD3F6"/>
<path d="M66.0092 97.0587L64.8157 96.179L67.4033 93.3265L68.5968 94.2063C67.7197 95.4009 66.7228 96.1478 66.0092 97.0587Z" fill="#8CD3F6"/>
<path d="M62.7512 100.091L61.8412 99.3751L64.2654 96.8063L65.2354 97.7459C63.7482 99.344 62.7512 100.091 62.7512 100.091Z" fill="#8CD3F6"/>
<path d="M107.03 55.3598L104.583 53.3765L107.171 50.524L109.677 52.7312C108.904 53.4183 107.967 54.389 107.03 55.3598Z" fill="#8CD3F6"/>
<path d="M86.1979 44.6284L88.6447 46.6117L90.889 43.3714L88.4422 41.3881C87.7885 42.5228 87.1349 43.6576 86.1979 44.6284Z" fill="#8CD3F6"/>
<path d="M83.4633 48.7198L85.8501 50.4793L88.1544 47.4628L85.7076 45.4795C85.0539 46.6143 84.4003 47.749 83.4633 48.7198Z" fill="#8CD3F6"/>
<path d="M61.9743 81.1071L63.451 82.1508L65.5319 79.1942L63.9951 77.9267C63.3415 79.0614 62.6879 80.1962 61.9743 81.1071Z" fill="#8CD3F6"/>
<path d="M64.4852 77.0755L66.022 78.3431L68.2663 75.1028L66.7295 73.8352C66.0759 74.97 65.1989 76.1646 64.4852 77.0755Z" fill="#8CD3F6"/>
<path d="M72.7487 65.0253L74.6288 66.6806L76.873 63.4403L74.9929 61.785C74.0559 62.7558 73.4023 63.8905 72.7487 65.0253Z" fill="#8CD3F6"/>
<path d="M67.2199 72.9842L69.04 74.4157L71.2842 71.1754L69.4641 69.7439C68.8105 70.8787 67.9335 72.0733 67.2199 72.9842Z" fill="#8CD3F6"/>
<path d="M75.4832 60.934L77.5867 62.5295L79.831 59.2892L77.6675 57.4699C76.7905 58.6645 76.1369 59.7993 75.4832 60.934Z" fill="#8CD3F6"/>
<path d="M78.2177 56.8427L80.3811 58.662L82.6254 55.4217L80.4619 53.6024C79.5249 54.5732 78.8713 55.7079 78.2177 56.8427Z" fill="#8CD3F6"/>
<path d="M80.9523 52.7513L83.1157 54.5706L85.36 51.3303L83.1966 49.511C82.3195 50.7056 81.6059 51.6165 80.9523 52.7513Z" fill="#8CD3F6"/>
<path d="M69.9542 68.8929L71.7744 70.3244L74.0186 67.0841L72.1985 65.6526C71.3215 66.8472 70.6679 67.982 69.9542 68.8929Z" fill="#8CD3F6"/>
<path d="M59.2396 85.1983L60.493 86.3019L62.7373 83.0616L61.4839 81.9581C60.6069 83.1527 59.9533 84.2874 59.2396 85.1983Z" fill="#8CD3F6"/>
<path d="M94.7448 32.7422L97.1916 34.7255L99.4359 31.4852L96.989 29.5019C96.3354 30.6367 95.3984 31.6074 94.7448 32.7422Z" fill="#8CD3F6"/>
<path d="M99.68 26.1419C99.1298 26.7691 98.4162 27.68 97.7025 28.5909L100.149 30.5743L102.067 27.9014C101.903 28.185 100.65 27.0815 99.68 26.1419Z" fill="#8CD3F6"/>
<path d="M91.9501 36.6097L94.3969 38.593L96.6412 35.3527L94.1944 33.3694C93.3173 34.564 92.6637 35.6988 91.9501 36.6097Z" fill="#8CD3F6"/>
<path d="M56.5053 89.2898L57.6987 90.1695L59.9429 86.9292L58.7495 86.0495C57.8725 87.2441 57.2189 88.3788 56.5053 89.2898Z" fill="#8CD3F6"/>
<path d="M54.1575 93.0376L55.1276 93.9772L57.045 91.3043L56.075 90.3647C54.8711 92.1267 54.1575 93.0376 54.1575 93.0376Z" fill="#8CD3F6"/>
<path d="M88.9923 40.761L91.4391 42.7443L93.6834 39.504L91.2366 37.5207C90.583 38.6555 89.8694 39.5664 88.9923 40.761Z" fill="#8CD3F6"/>
<path d="M65.3729 134.894L64.7792 136.253C64.6158 136.536 64.169 136.656 64.1091 136.432L45.3951 118.416L55.5386 108.021L56.825 111.035C49.7263 115.816 53.2918 127.336 65.3729 134.894Z" fill="#EDEDED"/>
<path d="M19.3303 97.0915L18.1699 98.1221C18.0065 98.4058 17.8431 98.6895 18.1265 98.8535L39.5315 113.51L47.5715 101.519L44.5311 100.895C41.1325 108.763 29.1071 107.667 19.3303 97.0915Z" fill="#EDEDED"/>
</g>
</svg>
